G04*
G04 #@! TF.GenerationSoftware,Altium Limited,Altium Designer,18.1.6 (161)*
G04*
G04 Layer_Color=65535*
%FSLAX25Y25*%
%MOIN*%
G70*
G01*
G75*
%ADD10C,0.00500*%
%ADD11C,0.00787*%
%ADD12C,0.01968*%
%ADD13C,0.01000*%
%ADD14C,0.00984*%
%ADD15C,0.00600*%
%ADD16C,0.03937*%
G36*
X166205Y241937D02*
X166009D01*
X165647Y242087D01*
X165370Y242364D01*
X165220Y242725D01*
Y242921D01*
Y243117D01*
X165370Y243479D01*
X165647Y243756D01*
X166009Y243905D01*
X166205D01*
X166401D01*
X166762Y243756D01*
X167039Y243479D01*
X167189Y243117D01*
Y242921D01*
Y242725D01*
X167039Y242364D01*
X166762Y242087D01*
X166401Y241937D01*
X166205D01*
D01*
D02*
G37*
G36*
X278504Y237890D02*
X278012D01*
X277103Y238266D01*
X276408Y238962D01*
X276031Y239870D01*
Y240362D01*
Y240854D01*
X276408Y241763D01*
X277103Y242458D01*
X278012Y242835D01*
X278504D01*
X278996D01*
X279905Y242458D01*
X280600Y241763D01*
X280976Y240854D01*
Y240362D01*
Y239870D01*
X280600Y238962D01*
X279905Y238266D01*
X278996Y237890D01*
X278504D01*
D01*
D02*
G37*
D10*
X421764Y207181D02*
X421812Y206227D01*
X421956Y205283D01*
X422195Y204359D01*
X422526Y203463D01*
X422946Y202605D01*
X423450Y201794D01*
X424033Y201038D01*
X424690Y200345D01*
X425413Y199721D01*
X442169Y207173D02*
X442050Y208150D01*
X441838Y209110D01*
X441535Y210046D01*
X441142Y210948D01*
X440665Y211808D01*
X440107Y212618D01*
X439473Y213370D01*
X438770Y214058D01*
X438004Y214675D01*
X437182Y215215D01*
X436312Y215673D01*
X435402Y216046D01*
X434460Y216329D01*
X433495Y216520D01*
X432516Y216617D01*
X431532Y216619D01*
X430553Y216527D01*
X429587Y216340D01*
X428644Y216061D01*
X427732Y215693D01*
X426860Y215239D01*
X426035Y214702D01*
X425266Y214089D01*
X424560Y213404D01*
X423923Y212655D01*
X423361Y211847D01*
X422880Y210989D01*
X422484Y210089D01*
X422176Y209155D01*
X421960Y208195D01*
X421837Y207220D01*
X439087Y199701D02*
X439820Y200438D01*
X440467Y201252D01*
X441021Y202132D01*
X441476Y203067D01*
X441824Y204046D01*
X442063Y205058D01*
X442190Y206090D01*
X442202Y207130D01*
X116685Y29000D02*
X116660Y29997D01*
X116584Y30992D01*
X116458Y31981D01*
X116282Y32963D01*
X116057Y33934D01*
X115782Y34893D01*
X115460Y35837D01*
X115090Y36763D01*
X114673Y37669D01*
X114212Y38553D01*
X113706Y39413D01*
X113157Y40245D01*
X112566Y41049D01*
X111936Y41822D01*
X111268Y42562D01*
X110562Y43268D01*
X109822Y43936D01*
X109049Y44566D01*
X108245Y45157D01*
X107413Y45706D01*
X106553Y46211D01*
X105669Y46673D01*
X104763Y47090D01*
X103837Y47460D01*
X102893Y47782D01*
X101934Y48057D01*
X100963Y48282D01*
X99981Y48458D01*
X98992Y48584D01*
X97997Y48660D01*
X97000Y48685D01*
X96003Y48660D01*
X95008Y48584D01*
X94019Y48458D01*
X93037Y48282D01*
X92066Y48057D01*
X91107Y47782D01*
X90163Y47460D01*
X89237Y47090D01*
X88331Y46673D01*
X87447Y46211D01*
X86587Y45706D01*
X85755Y45157D01*
X84951Y44566D01*
X84178Y43936D01*
X83438Y43268D01*
X82732Y42562D01*
X82064Y41822D01*
X81433Y41049D01*
X80843Y40245D01*
X80294Y39413D01*
X79788Y38553D01*
X79327Y37669D01*
X78910Y36763D01*
X78540Y35837D01*
X78218Y34893D01*
X77943Y33934D01*
X77718Y32963D01*
X77542Y31981D01*
X77416Y30992D01*
X77340Y29997D01*
X77315Y29000D01*
X77340Y28003D01*
X77416Y27009D01*
X77542Y26019D01*
X77718Y25037D01*
X77943Y24066D01*
X78218Y23107D01*
X78540Y22163D01*
X78910Y21237D01*
X79327Y20331D01*
X79789Y19447D01*
X80294Y18587D01*
X80843Y17754D01*
X81434Y16951D01*
X82064Y16178D01*
X82732Y15438D01*
X83438Y14732D01*
X84178Y14064D01*
X84951Y13433D01*
X85755Y12843D01*
X86587Y12294D01*
X87447Y11788D01*
X88331Y11327D01*
X89237Y10910D01*
X90163Y10540D01*
X91107Y10218D01*
X92066Y9943D01*
X93037Y9718D01*
X94019Y9542D01*
X95009Y9416D01*
X96003Y9340D01*
X97000Y9315D01*
X97997Y9340D01*
X98992Y9416D01*
X99981Y9542D01*
X100963Y9718D01*
X101934Y9943D01*
X102893Y10218D01*
X103837Y10540D01*
X104763Y10910D01*
X105669Y11327D01*
X106553Y11789D01*
X107413Y12294D01*
X108246Y12843D01*
X109049Y13434D01*
X109822Y14064D01*
X110562Y14732D01*
X111268Y15438D01*
X111936Y16178D01*
X112566Y16951D01*
X113157Y17755D01*
X113706Y18587D01*
X114212Y19447D01*
X114673Y20331D01*
X115090Y21237D01*
X115460Y22163D01*
X115782Y23107D01*
X116057Y24066D01*
X116282Y25038D01*
X116458Y26019D01*
X116584Y27009D01*
X116660Y28003D01*
X116685Y29000D01*
X55669Y24000D02*
X55638Y24999D01*
X55543Y25994D01*
X55385Y26980D01*
X55164Y27955D01*
X54883Y28914D01*
X54541Y29853D01*
X54141Y30768D01*
X53683Y31657D01*
X53169Y32514D01*
X52603Y33337D01*
X51985Y34123D01*
X51319Y34867D01*
X50607Y35568D01*
X49851Y36223D01*
X49056Y36828D01*
X48224Y37382D01*
X47359Y37881D01*
X46463Y38325D01*
X45542Y38711D01*
X44597Y39038D01*
X43634Y39304D01*
X42656Y39509D01*
X41667Y39651D01*
X40671Y39730D01*
X39671Y39746D01*
X38673Y39698D01*
X37680Y39588D01*
X36696Y39414D01*
X35725Y39179D01*
X34771Y38882D01*
X33837Y38525D01*
X32928Y38110D01*
X32047Y37638D01*
X31198Y37111D01*
X30384Y36532D01*
X29609Y35902D01*
X28874Y35223D01*
X28185Y34500D01*
X27542Y33735D01*
X26950Y32930D01*
X26410Y32089D01*
X25924Y31216D01*
X25494Y30314D01*
X25123Y29386D01*
X24811Y28437D01*
X24560Y27470D01*
X24371Y26488D01*
X24245Y25497D01*
X24181Y24500D01*
Y23500D01*
X24245Y22503D01*
X24371Y21512D01*
X24560Y20530D01*
X24811Y19563D01*
X25123Y18614D01*
X25494Y17686D01*
X25924Y16784D01*
X26410Y15911D01*
X26950Y15070D01*
X27542Y14265D01*
X28185Y13500D01*
X28874Y12776D01*
X29609Y12098D01*
X30384Y11468D01*
X31198Y10889D01*
X32047Y10362D01*
X32928Y9890D01*
X33837Y9475D01*
X34771Y9118D01*
X35725Y8821D01*
X36696Y8586D01*
X37680Y8412D01*
X38673Y8302D01*
X39671Y8254D01*
X40671Y8270D01*
X41667Y8349D01*
X42656Y8491D01*
X43634Y8696D01*
X44597Y8962D01*
X45542Y9289D01*
X46463Y9675D01*
X47359Y10119D01*
X48224Y10618D01*
X49056Y11172D01*
X49851Y11777D01*
X50606Y12432D01*
X51319Y13133D01*
X51985Y13877D01*
X52603Y14663D01*
X53169Y15486D01*
X53683Y16343D01*
X54141Y17232D01*
X54541Y18147D01*
X54883Y19086D01*
X55164Y20045D01*
X55385Y21020D01*
X55543Y22006D01*
X55638Y23001D01*
X55669Y24000D01*
X110819Y92744D02*
X111773Y92792D01*
X112717Y92937D01*
X113641Y93175D01*
X114537Y93506D01*
X115395Y93926D01*
X116206Y94430D01*
X116962Y95013D01*
X117655Y95670D01*
X118279Y96393D01*
X110827Y113149D02*
X109850Y113031D01*
X108890Y112819D01*
X107954Y112515D01*
X107052Y112123D01*
X106192Y111645D01*
X105382Y111087D01*
X104630Y110454D01*
X103942Y109751D01*
X103325Y108984D01*
X102785Y108163D01*
X102327Y107292D01*
X101954Y106382D01*
X101671Y105440D01*
X101480Y104475D01*
X101383Y103496D01*
X101381Y102513D01*
X101473Y101533D01*
X101660Y100568D01*
X101939Y99624D01*
X102307Y98712D01*
X102761Y97840D01*
X103298Y97016D01*
X103911Y96247D01*
X104596Y95540D01*
X105345Y94903D01*
X106153Y94342D01*
X107011Y93861D01*
X107911Y93464D01*
X108845Y93156D01*
X109804Y92940D01*
X110780Y92817D01*
X118299Y110067D02*
X117562Y110800D01*
X116748Y111448D01*
X115868Y112002D01*
X114933Y112456D01*
X113954Y112805D01*
X112942Y113044D01*
X111910Y113170D01*
X110870Y113182D01*
X164819Y92744D02*
X165773Y92792D01*
X166717Y92937D01*
X167641Y93175D01*
X168537Y93506D01*
X169395Y93926D01*
X170206Y94430D01*
X170962Y95013D01*
X171655Y95670D01*
X172279Y96393D01*
X164827Y113149D02*
X163850Y113031D01*
X162890Y112819D01*
X161954Y112515D01*
X161052Y112123D01*
X160192Y111645D01*
X159382Y111087D01*
X158630Y110454D01*
X157942Y109751D01*
X157325Y108984D01*
X156785Y108163D01*
X156326Y107292D01*
X155954Y106382D01*
X155671Y105440D01*
X155480Y104475D01*
X155383Y103496D01*
X155381Y102513D01*
X155473Y101533D01*
X155660Y100568D01*
X155939Y99624D01*
X156307Y98712D01*
X156761Y97840D01*
X157298Y97016D01*
X157911Y96247D01*
X158596Y95540D01*
X159345Y94903D01*
X160153Y94342D01*
X161011Y93861D01*
X161911Y93464D01*
X162845Y93156D01*
X163804Y92940D01*
X164780Y92817D01*
X172299Y110067D02*
X171562Y110800D01*
X170748Y111448D01*
X169869Y112002D01*
X168933Y112456D01*
X167954Y112805D01*
X166942Y113044D01*
X165910Y113170D01*
X164870Y113182D01*
X217819Y92744D02*
X218773Y92792D01*
X219717Y92937D01*
X220641Y93175D01*
X221537Y93506D01*
X222395Y93926D01*
X223206Y94430D01*
X223962Y95013D01*
X224655Y95670D01*
X225279Y96393D01*
X217827Y113149D02*
X216850Y113031D01*
X215890Y112819D01*
X214954Y112515D01*
X214052Y112123D01*
X213192Y111645D01*
X212382Y111087D01*
X211630Y110454D01*
X210942Y109751D01*
X210325Y108984D01*
X209785Y108163D01*
X209327Y107292D01*
X208954Y106382D01*
X208671Y105440D01*
X208480Y104475D01*
X208383Y103496D01*
X208381Y102513D01*
X208473Y101533D01*
X208660Y100568D01*
X208939Y99624D01*
X209307Y98712D01*
X209761Y97840D01*
X210298Y97016D01*
X210911Y96247D01*
X211596Y95540D01*
X212345Y94903D01*
X213153Y94342D01*
X214011Y93861D01*
X214911Y93464D01*
X215845Y93156D01*
X216805Y92940D01*
X217780Y92817D01*
X225299Y110067D02*
X224562Y110800D01*
X223748Y111448D01*
X222868Y112002D01*
X221933Y112456D01*
X220954Y112805D01*
X219942Y113044D01*
X218910Y113170D01*
X217870Y113182D01*
X430425Y199701D02*
X433575D01*
X425701D02*
X428850D01*
X435150D02*
X438693D01*
X428850D02*
X430425D01*
X433575D02*
X435150D01*
X452354Y179124D02*
X461646D01*
X452354Y160876D02*
Y179124D01*
Y160876D02*
X461646D01*
Y179124D01*
X444031Y112638D02*
Y193347D01*
X416472Y112638D02*
Y193347D01*
Y112638D02*
X416492D01*
X425508D02*
X444031D01*
X416472Y193347D02*
X416492D01*
X444012D02*
X444031D01*
X425508D02*
X434996D01*
X416492Y112638D02*
X425508D01*
X416492Y193347D02*
X425508D01*
X434996D02*
X444012D01*
X118299Y101406D02*
Y104555D01*
Y96681D02*
Y99831D01*
Y106130D02*
Y109673D01*
Y99831D02*
Y101406D01*
Y104555D02*
Y106130D01*
X172299Y101406D02*
Y104555D01*
Y96681D02*
Y99831D01*
Y106130D02*
Y109673D01*
Y99831D02*
Y101406D01*
Y104555D02*
Y106130D01*
X225299Y101406D02*
Y104555D01*
Y96681D02*
Y99831D01*
Y106130D02*
Y109673D01*
Y99831D02*
Y101406D01*
Y104555D02*
Y106130D01*
D11*
X415902Y206000D02*
X415114D01*
X415902D01*
X457394Y195591D02*
X456606D01*
X457394D01*
X439898Y196398D02*
X439110D01*
X439898D01*
X97394Y6362D02*
X96606D01*
X97394D01*
X40315Y5890D02*
X39528D01*
X40315D01*
X55402Y135902D02*
X55361Y136899D01*
X55241Y137891D01*
X55041Y138870D01*
X54763Y139829D01*
X54409Y140763D01*
X53981Y141665D01*
X53482Y142530D01*
X52914Y143352D01*
X52283Y144125D01*
X51591Y144846D01*
X50843Y145508D01*
X50045Y146108D01*
X49201Y146642D01*
X48316Y147106D01*
X47398Y147497D01*
X46450Y147813D01*
X45481Y148053D01*
X44495Y148213D01*
X43499Y148293D01*
X42501D01*
X41505Y148213D01*
X40519Y148053D01*
X39550Y147813D01*
X38602Y147497D01*
X37683Y147106D01*
X36799Y146642D01*
X35955Y146108D01*
X35157Y145508D01*
X34409Y144846D01*
X33717Y144125D01*
X33086Y143352D01*
X32518Y142530D01*
X32019Y141665D01*
X31591Y140763D01*
X31237Y139829D01*
X30959Y138870D01*
X30759Y137891D01*
X30639Y136899D01*
X30598Y135902D01*
X30639Y134904D01*
X30759Y133912D01*
X30959Y132934D01*
X31237Y131974D01*
X31591Y131041D01*
X32019Y130138D01*
X32518Y129273D01*
X33086Y128451D01*
X33717Y127678D01*
X34409Y126957D01*
X35157Y126295D01*
X35955Y125695D01*
X36799Y125162D01*
X37684Y124697D01*
X38602Y124306D01*
X39550Y123990D01*
X40519Y123751D01*
X41505Y123590D01*
X42501Y123510D01*
X43499D01*
X44495Y123590D01*
X45481Y123751D01*
X46450Y123990D01*
X47398Y124306D01*
X48316Y124697D01*
X49201Y125162D01*
X50045Y125695D01*
X50843Y126295D01*
X51591Y126957D01*
X52283Y127678D01*
X52914Y128451D01*
X53482Y129273D01*
X53981Y130138D01*
X54409Y131041D01*
X54763Y131974D01*
X55041Y132934D01*
X55241Y133912D01*
X55361Y134904D01*
X55402Y135902D01*
X29417Y136000D02*
X28630D01*
X29417D01*
X35394Y198929D02*
X34606D01*
X35394D01*
X112394Y86488D02*
X111606D01*
X112394D01*
X166394D02*
X165606D01*
X166394D01*
X219394D02*
X218606D01*
X219394D01*
X220331Y246965D02*
X219543D01*
X220331D01*
X225744Y242043D02*
X225694Y243039D01*
X225543Y244025D01*
X225293Y244990D01*
X224946Y245925D01*
X224507Y246820D01*
X223980Y247666D01*
X223370Y248454D01*
X222683Y249177D01*
X221926Y249827D01*
X221108Y250396D01*
X220236Y250880D01*
X219320Y251273D01*
X218369Y251572D01*
X217392Y251772D01*
X216400Y251873D01*
X215403D01*
X214411Y251772D01*
X213435Y251572D01*
X212483Y251273D01*
X211567Y250880D01*
X210695Y250396D01*
X209877Y249827D01*
X209120Y249177D01*
X208434Y248454D01*
X207823Y247666D01*
X207296Y246820D01*
X206857Y245925D01*
X206510Y244990D01*
X206260Y244025D01*
X206109Y243039D01*
X206059Y242043D01*
X206109Y241048D01*
X206260Y240062D01*
X206510Y239097D01*
X206857Y238162D01*
X207296Y237267D01*
X207823Y236421D01*
X208434Y235632D01*
X209120Y234910D01*
X209877Y234260D01*
X210695Y233691D01*
X211567Y233207D01*
X212483Y232814D01*
X213435Y232515D01*
X214411Y232314D01*
X215403Y232213D01*
X216400D01*
X217392Y232314D01*
X218369Y232515D01*
X219320Y232814D01*
X220236Y233207D01*
X221108Y233691D01*
X221926Y234260D01*
X222683Y234910D01*
X223370Y235632D01*
X223980Y236421D01*
X224507Y237267D01*
X224946Y238162D01*
X225293Y239097D01*
X225543Y240062D01*
X225694Y241048D01*
X225744Y242043D01*
X32299Y53567D02*
X69701D01*
X32299D02*
Y74433D01*
X69701D01*
Y53567D02*
Y74433D01*
X69898Y64000D02*
X86000D01*
X16000D02*
X32102D01*
X44646Y204835D02*
X52716D01*
X17284Y261134D02*
X52716D01*
X17284Y227472D02*
Y261134D01*
Y204835D02*
X25354D01*
X17284D02*
Y209756D01*
X52716Y204835D02*
Y261134D01*
D12*
X280976Y240362D02*
X280788Y241308D01*
X280252Y242110D01*
X279450Y242647D01*
X278504Y242835D01*
X277558Y242647D01*
X276756Y242110D01*
X276220Y241308D01*
X276031Y240362D01*
X276220Y239416D01*
X276756Y238614D01*
X277558Y238078D01*
X278504Y237890D01*
X279450Y238078D01*
X280252Y238614D01*
X280788Y239416D01*
X280976Y240362D01*
X182811Y64000D02*
X182768Y65002D01*
X182641Y65996D01*
X182430Y66976D01*
X182136Y67935D01*
X181763Y68865D01*
X181311Y69760D01*
X180786Y70614D01*
X180189Y71420D01*
X179527Y72172D01*
X178803Y72866D01*
X178023Y73496D01*
X177193Y74057D01*
X176317Y74546D01*
X175404Y74959D01*
X174459Y75293D01*
X173488Y75546D01*
X172500Y75715D01*
X171501Y75800D01*
X170499D01*
X169500Y75715D01*
X168512Y75546D01*
X167542Y75293D01*
X166596Y74959D01*
X165683Y74546D01*
X164807Y74057D01*
X163977Y73496D01*
X163197Y72866D01*
X162473Y72172D01*
X161811Y71420D01*
X161214Y70614D01*
X160689Y69760D01*
X160238Y68865D01*
X159864Y67935D01*
X159570Y66976D01*
X159359Y65996D01*
X159231Y65002D01*
X159189Y64000D01*
X159231Y62998D01*
X159359Y62004D01*
X159570Y61024D01*
X159864Y60065D01*
X160238Y59135D01*
X160689Y58240D01*
X161214Y57386D01*
X161811Y56580D01*
X162473Y55827D01*
X163197Y55134D01*
X163977Y54504D01*
X164807Y53943D01*
X165683Y53454D01*
X166596Y53041D01*
X167542Y52707D01*
X168512Y52454D01*
X169500Y52285D01*
X170499Y52200D01*
X171501D01*
X172500Y52285D01*
X173488Y52454D01*
X174459Y52707D01*
X175404Y53041D01*
X176317Y53454D01*
X177193Y53943D01*
X178023Y54504D01*
X178803Y55134D01*
X179527Y55827D01*
X180189Y56580D01*
X180786Y57386D01*
X181311Y58240D01*
X181763Y59135D01*
X182136Y60065D01*
X182430Y61024D01*
X182641Y62004D01*
X182768Y62998D01*
X182811Y64000D01*
D13*
X167189Y242921D02*
X166697Y243774D01*
X165713D01*
X165220Y242921D01*
X165713Y242069D01*
X166697D01*
X167189Y242921D01*
X170921Y146205D02*
Y171795D01*
X161079Y146205D02*
X170921D01*
X161079D02*
Y171795D01*
X170921D01*
X223921Y146205D02*
Y171795D01*
X214079Y146205D02*
X223921D01*
X214079D02*
Y171795D01*
X223921D01*
X117205Y59079D02*
X142795D01*
X117205D02*
Y68921D01*
X142795D01*
Y59079D02*
Y68921D01*
X421224Y230079D02*
X446815D01*
X421224D02*
Y239921D01*
X446815D01*
Y230079D02*
Y239921D01*
X421224Y260921D02*
X446815D01*
Y251079D02*
Y260921D01*
X421224Y251079D02*
X446815D01*
X421224D02*
Y260921D01*
X73748Y159827D02*
Y187386D01*
X42252Y159827D02*
X73748D01*
X42252D02*
Y187386D01*
X73748D01*
X116921Y146205D02*
Y171795D01*
X107079Y146205D02*
X116921D01*
X107079D02*
Y171795D01*
X116921D01*
X90921Y102205D02*
Y127795D01*
X81079Y102205D02*
X90921D01*
X81079D02*
Y127795D01*
X90921D01*
X139921Y102205D02*
Y127795D01*
X130079Y102205D02*
X139921D01*
X130079D02*
Y127795D01*
X139921D01*
X194921Y102205D02*
Y127795D01*
X185079Y102205D02*
X194921D01*
X185079D02*
Y127795D01*
X194921D01*
X365094Y141740D02*
Y234260D01*
Y141740D02*
X376905D01*
Y234260D01*
X365094D02*
X376905D01*
X221063Y45158D02*
Y64842D01*
X228937Y45158D02*
Y64842D01*
X221063Y64842D02*
X228937Y64842D01*
X221063Y45158D02*
X228937D01*
X221063Y15157D02*
Y34843D01*
X228937Y15157D02*
Y34843D01*
X221063Y34843D02*
X228937Y34843D01*
X221063Y15157D02*
X228937D01*
X162268Y251780D02*
X195732D01*
X162268Y224220D02*
Y251780D01*
Y224220D02*
X195732D01*
Y251780D01*
X170315Y200095D02*
X209685D01*
X170315D02*
Y211906D01*
X209685D01*
Y200095D02*
Y211906D01*
X230000Y66000D02*
Y69999D01*
X231999D01*
X232666Y69332D01*
Y67999D01*
X231999Y67333D01*
X230000D01*
X233999Y69332D02*
X234665Y69999D01*
X235998D01*
X236665Y69332D01*
Y68666D01*
X235998Y67999D01*
X235332D01*
X235998D01*
X236665Y67333D01*
Y66666D01*
X235998Y66000D01*
X234665D01*
X233999Y66666D01*
X237997Y69999D02*
X240663D01*
Y69332D01*
X237997Y66666D01*
Y66000D01*
X230000Y76000D02*
Y79999D01*
X231999D01*
X232666Y79332D01*
Y77999D01*
X231999Y77333D01*
X230000D01*
X233999Y79332D02*
X234665Y79999D01*
X235998D01*
X236665Y79332D01*
Y78666D01*
X235998Y77999D01*
X235332D01*
X235998D01*
X236665Y77333D01*
Y76666D01*
X235998Y76000D01*
X234665D01*
X233999Y76666D01*
X240663Y79999D02*
X239330Y79332D01*
X237997Y77999D01*
Y76666D01*
X238664Y76000D01*
X239997D01*
X240663Y76666D01*
Y77333D01*
X239997Y77999D01*
X237997D01*
X230000Y86488D02*
Y90487D01*
X231999D01*
X232666Y89820D01*
Y88487D01*
X231999Y87821D01*
X230000D01*
X233999Y89820D02*
X234665Y90487D01*
X235998D01*
X236665Y89820D01*
Y89154D01*
X235998Y88487D01*
X235332D01*
X235998D01*
X236665Y87821D01*
Y87155D01*
X235998Y86488D01*
X234665D01*
X233999Y87155D01*
X240663Y90487D02*
X237997D01*
Y88487D01*
X239330Y89154D01*
X239997D01*
X240663Y88487D01*
Y87155D01*
X239997Y86488D01*
X238664D01*
X237997Y87155D01*
X230000Y96000D02*
Y99999D01*
X231999D01*
X232666Y99332D01*
Y97999D01*
X231999Y97333D01*
X230000D01*
X233999Y99332D02*
X234665Y99999D01*
X235998D01*
X236665Y99332D01*
Y98666D01*
X235998Y97999D01*
X235332D01*
X235998D01*
X236665Y97333D01*
Y96666D01*
X235998Y96000D01*
X234665D01*
X233999Y96666D01*
X239997Y96000D02*
Y99999D01*
X237997Y97999D01*
X240663D01*
X230000Y106000D02*
Y109999D01*
X231999D01*
X232666Y109332D01*
Y107999D01*
X231999Y107333D01*
X230000D01*
X233999Y109332D02*
X234665Y109999D01*
X235998D01*
X236665Y109332D01*
Y108666D01*
X235998Y107999D01*
X235332D01*
X235998D01*
X236665Y107333D01*
Y106667D01*
X235998Y106000D01*
X234665D01*
X233999Y106667D01*
X237997Y109332D02*
X238664Y109999D01*
X239997D01*
X240663Y109332D01*
Y108666D01*
X239997Y107999D01*
X239330D01*
X239997D01*
X240663Y107333D01*
Y106667D01*
X239997Y106000D01*
X238664D01*
X237997Y106667D01*
X230000Y116480D02*
Y120479D01*
X231999D01*
X232666Y119813D01*
Y118480D01*
X231999Y117813D01*
X230000D01*
X233999Y119813D02*
X234665Y120479D01*
X235998D01*
X236665Y119813D01*
Y119146D01*
X235998Y118480D01*
X235332D01*
X235998D01*
X236665Y117813D01*
Y117147D01*
X235998Y116480D01*
X234665D01*
X233999Y117147D01*
X240663Y116480D02*
X237997D01*
X240663Y119146D01*
Y119813D01*
X239997Y120479D01*
X238664D01*
X237997Y119813D01*
X230000Y126000D02*
Y129999D01*
X231999D01*
X232666Y129332D01*
Y127999D01*
X231999Y127333D01*
X230000D01*
X233999Y129332D02*
X234665Y129999D01*
X235998D01*
X236665Y129332D01*
Y128666D01*
X235998Y127999D01*
X235332D01*
X235998D01*
X236665Y127333D01*
Y126666D01*
X235998Y126000D01*
X234665D01*
X233999Y126666D01*
X237997Y126000D02*
X239330D01*
X238664D01*
Y129999D01*
X237997Y129332D01*
X230000Y137000D02*
Y140999D01*
X231999D01*
X232666Y140332D01*
Y138999D01*
X231999Y138333D01*
X230000D01*
X233999Y140332D02*
X234665Y140999D01*
X235998D01*
X236665Y140332D01*
Y139666D01*
X235998Y138999D01*
X235332D01*
X235998D01*
X236665Y138333D01*
Y137666D01*
X235998Y137000D01*
X234665D01*
X233999Y137666D01*
X237997Y140332D02*
X238664Y140999D01*
X239997D01*
X240663Y140332D01*
Y137666D01*
X239997Y137000D01*
X238664D01*
X237997Y137666D01*
Y140332D01*
X233000Y146205D02*
Y150203D01*
X234999D01*
X235666Y149537D01*
Y148204D01*
X234999Y147538D01*
X233000D01*
X234333D02*
X235666Y146205D01*
X239665Y149537D02*
X238998Y150203D01*
X237665D01*
X236999Y149537D01*
Y148871D01*
X237665Y148204D01*
X238998D01*
X239665Y147538D01*
Y146871D01*
X238998Y146205D01*
X237665D01*
X236999Y146871D01*
X230000Y157000D02*
Y160999D01*
X231999D01*
X232666Y160332D01*
Y158999D01*
X231999Y158333D01*
X230000D01*
X233999Y157000D02*
X235332D01*
X234665D01*
Y160999D01*
X233999Y160332D01*
X237331Y160999D02*
X239997D01*
Y160332D01*
X237331Y157667D01*
Y157000D01*
X230000Y166000D02*
Y169999D01*
X231999D01*
X232666Y169332D01*
Y167999D01*
X231999Y167333D01*
X230000D01*
X233999Y166000D02*
X235332D01*
X234665D01*
Y169999D01*
X233999Y169332D01*
X239997Y169999D02*
X238664Y169332D01*
X237331Y167999D01*
Y166666D01*
X237997Y166000D01*
X239330D01*
X239997Y166666D01*
Y167333D01*
X239330Y167999D01*
X237331D01*
X230000Y176000D02*
Y179999D01*
X231999D01*
X232666Y179332D01*
Y177999D01*
X231999Y177333D01*
X230000D01*
X233999Y176000D02*
X235332D01*
X234665D01*
Y179999D01*
X233999Y179332D01*
X239997Y179999D02*
X237331D01*
Y177999D01*
X238664Y178666D01*
X239330D01*
X239997Y177999D01*
Y176666D01*
X239330Y176000D01*
X237997D01*
X237331Y176666D01*
X230000Y186000D02*
Y189999D01*
X231999D01*
X232666Y189332D01*
Y187999D01*
X231999Y187333D01*
X230000D01*
X233999Y186000D02*
X235332D01*
X234665D01*
Y189999D01*
X233999Y189332D01*
X239330Y186000D02*
Y189999D01*
X237331Y187999D01*
X239997D01*
X230000Y196000D02*
Y199999D01*
X231999D01*
X232666Y199332D01*
Y197999D01*
X231999Y197333D01*
X230000D01*
X233999Y196000D02*
X235332D01*
X234665D01*
Y199999D01*
X233999Y199332D01*
X237331D02*
X237997Y199999D01*
X239330D01*
X239997Y199332D01*
Y198666D01*
X239330Y197999D01*
X238664D01*
X239330D01*
X239997Y197333D01*
Y196667D01*
X239330Y196000D01*
X237997D01*
X237331Y196667D01*
X230000Y206000D02*
Y209999D01*
X231999D01*
X232666Y209332D01*
Y207999D01*
X231999Y207333D01*
X230000D01*
X233999Y206000D02*
X235332D01*
X234665D01*
Y209999D01*
X233999Y209332D01*
X239997Y206000D02*
X237331D01*
X239997Y208666D01*
Y209332D01*
X239330Y209999D01*
X237997D01*
X237331Y209332D01*
X230000Y216000D02*
Y219999D01*
X231999D01*
X232666Y219332D01*
Y217999D01*
X231999Y217333D01*
X230000D01*
X233999Y216000D02*
X235332D01*
X234665D01*
Y219999D01*
X233999Y219332D01*
X237331Y216000D02*
X238664D01*
X237997D01*
Y219999D01*
X237331Y219332D01*
X230000Y226000D02*
Y229999D01*
X231999D01*
X232666Y229332D01*
Y227999D01*
X231999Y227333D01*
X230000D01*
X233999Y226000D02*
X235332D01*
X234665D01*
Y229999D01*
X233999Y229332D01*
X237331D02*
X237997Y229999D01*
X239330D01*
X239997Y229332D01*
Y226666D01*
X239330Y226000D01*
X237997D01*
X237331Y226666D01*
Y229332D01*
X398000Y108000D02*
Y111999D01*
X399999D01*
X400666Y111332D01*
Y109999D01*
X399999Y109333D01*
X398000D01*
X404665Y108000D02*
X401999D01*
X404665Y110666D01*
Y111332D01*
X403998Y111999D01*
X402665D01*
X401999Y111332D01*
X405997Y111999D02*
X408663D01*
Y111332D01*
X405997Y108667D01*
Y108000D01*
X398000Y97000D02*
Y100999D01*
X399999D01*
X400666Y100332D01*
Y98999D01*
X399999Y98333D01*
X398000D01*
X404665Y97000D02*
X401999D01*
X404665Y99666D01*
Y100332D01*
X403998Y100999D01*
X402665D01*
X401999Y100332D01*
X408663Y100999D02*
X407330Y100332D01*
X405997Y98999D01*
Y97666D01*
X406664Y97000D01*
X407997D01*
X408663Y97666D01*
Y98333D01*
X407997Y98999D01*
X405997D01*
X398000Y87000D02*
Y90999D01*
X399999D01*
X400666Y90332D01*
Y88999D01*
X399999Y88333D01*
X398000D01*
X404665Y87000D02*
X401999D01*
X404665Y89666D01*
Y90332D01*
X403998Y90999D01*
X402665D01*
X401999Y90332D01*
X408663Y90999D02*
X405997D01*
Y88999D01*
X407330Y89666D01*
X407997D01*
X408663Y88999D01*
Y87666D01*
X407997Y87000D01*
X406664D01*
X405997Y87666D01*
X398000Y77000D02*
Y80999D01*
X399999D01*
X400666Y80332D01*
Y78999D01*
X399999Y78333D01*
X398000D01*
X404665Y77000D02*
X401999D01*
X404665Y79666D01*
Y80332D01*
X403998Y80999D01*
X402665D01*
X401999Y80332D01*
X407997Y77000D02*
Y80999D01*
X405997Y78999D01*
X408663D01*
X398000Y67000D02*
Y70999D01*
X399999D01*
X400666Y70332D01*
Y68999D01*
X399999Y68333D01*
X398000D01*
X404665Y67000D02*
X401999D01*
X404665Y69666D01*
Y70332D01*
X403998Y70999D01*
X402665D01*
X401999Y70332D01*
X405997D02*
X406664Y70999D01*
X407997D01*
X408663Y70332D01*
Y69666D01*
X407997Y68999D01*
X407330D01*
X407997D01*
X408663Y68333D01*
Y67666D01*
X407997Y67000D01*
X406664D01*
X405997Y67666D01*
X398000Y57000D02*
Y60999D01*
X399999D01*
X400666Y60332D01*
Y58999D01*
X399999Y58333D01*
X398000D01*
X404665Y57000D02*
X401999D01*
X404665Y59666D01*
Y60332D01*
X403998Y60999D01*
X402665D01*
X401999Y60332D01*
X408663Y57000D02*
X405997D01*
X408663Y59666D01*
Y60332D01*
X407997Y60999D01*
X406664D01*
X405997Y60332D01*
X398000Y47000D02*
Y50999D01*
X399999D01*
X400666Y50332D01*
Y48999D01*
X399999Y48333D01*
X398000D01*
X404665Y47000D02*
X401999D01*
X404665Y49666D01*
Y50332D01*
X403998Y50999D01*
X402665D01*
X401999Y50332D01*
X405997Y47000D02*
X407330D01*
X406664D01*
Y50999D01*
X405997Y50332D01*
X398000Y37118D02*
Y41117D01*
X399999D01*
X400666Y40450D01*
Y39118D01*
X399999Y38451D01*
X398000D01*
X404665Y37118D02*
X401999D01*
X404665Y39784D01*
Y40450D01*
X403998Y41117D01*
X402665D01*
X401999Y40450D01*
X405997D02*
X406664Y41117D01*
X407997D01*
X408663Y40450D01*
Y37785D01*
X407997Y37118D01*
X406664D01*
X405997Y37785D01*
Y40450D01*
X397000Y117165D02*
Y121164D01*
X398999D01*
X399666Y120498D01*
Y119165D01*
X398999Y118498D01*
X397000D01*
X403664Y120498D02*
X402998Y121164D01*
X401665D01*
X400999Y120498D01*
Y119831D01*
X401665Y119165D01*
X402998D01*
X403664Y118498D01*
Y117832D01*
X402998Y117165D01*
X401665D01*
X400999Y117832D01*
X407663Y121164D02*
X404997D01*
Y117165D01*
X407663D01*
X404997Y119165D02*
X406330D01*
X408996Y117165D02*
Y121164D01*
X411662Y117165D01*
Y121164D01*
X397000Y127000D02*
Y129666D01*
X398333Y130999D01*
X399666Y129666D01*
Y127000D01*
Y128999D01*
X397000D01*
X400999Y130999D02*
Y127000D01*
X403664D01*
X407663Y130999D02*
X404997D01*
Y127000D01*
X407663D01*
X404997Y128999D02*
X406330D01*
X399666Y140999D02*
X397000D01*
Y137000D01*
X399666D01*
X397000Y138999D02*
X398333D01*
X400999Y137000D02*
Y139666D01*
X402332Y140999D01*
X403664Y139666D01*
Y137000D01*
Y138999D01*
X400999D01*
X397000Y147000D02*
Y150999D01*
X398999D01*
X399666Y150332D01*
Y148999D01*
X398999Y148333D01*
X397000D01*
X400999Y150332D02*
X401665Y150999D01*
X402998D01*
X403664Y150332D01*
Y147667D01*
X402998Y147000D01*
X401665D01*
X400999Y147667D01*
Y150332D01*
X404997Y150999D02*
X407663D01*
Y150332D01*
X404997Y147667D01*
Y147000D01*
X397000Y157000D02*
Y160999D01*
X398999D01*
X399666Y160332D01*
Y158999D01*
X398999Y158333D01*
X397000D01*
X400999Y160332D02*
X401665Y160999D01*
X402998D01*
X403664Y160332D01*
Y157667D01*
X402998Y157000D01*
X401665D01*
X400999Y157667D01*
Y160332D01*
X407663Y160999D02*
X406330Y160332D01*
X404997Y158999D01*
Y157667D01*
X405664Y157000D01*
X406997D01*
X407663Y157667D01*
Y158333D01*
X406997Y158999D01*
X404997D01*
X397000Y167000D02*
Y170999D01*
X398999D01*
X399666Y170332D01*
Y168999D01*
X398999Y168333D01*
X397000D01*
X400999Y170332D02*
X401665Y170999D01*
X402998D01*
X403664Y170332D01*
Y167666D01*
X402998Y167000D01*
X401665D01*
X400999Y167666D01*
Y170332D01*
X407663Y170999D02*
X404997D01*
Y168999D01*
X406330Y169666D01*
X406997D01*
X407663Y168999D01*
Y167666D01*
X406997Y167000D01*
X405664D01*
X404997Y167666D01*
X397000Y177000D02*
Y180999D01*
X398999D01*
X399666Y180332D01*
Y178999D01*
X398999Y178333D01*
X397000D01*
X400999Y180332D02*
X401665Y180999D01*
X402998D01*
X403664Y180332D01*
Y177666D01*
X402998Y177000D01*
X401665D01*
X400999Y177666D01*
Y180332D01*
X406997Y177000D02*
Y180999D01*
X404997Y178999D01*
X407663D01*
X397000Y187000D02*
Y190999D01*
X398999D01*
X399666Y190332D01*
Y188999D01*
X398999Y188333D01*
X397000D01*
X400999Y190332D02*
X401665Y190999D01*
X402998D01*
X403664Y190332D01*
Y187666D01*
X402998Y187000D01*
X401665D01*
X400999Y187666D01*
Y190332D01*
X404997D02*
X405664Y190999D01*
X406997D01*
X407663Y190332D01*
Y189666D01*
X406997Y188999D01*
X406330D01*
X406997D01*
X407663Y188333D01*
Y187666D01*
X406997Y187000D01*
X405664D01*
X404997Y187666D01*
X397000Y197000D02*
Y200999D01*
X398999D01*
X399666Y200332D01*
Y198999D01*
X398999Y198333D01*
X397000D01*
X400999Y200332D02*
X401665Y200999D01*
X402998D01*
X403664Y200332D01*
Y197667D01*
X402998Y197000D01*
X401665D01*
X400999Y197667D01*
Y200332D01*
X407663Y197000D02*
X404997D01*
X407663Y199666D01*
Y200332D01*
X406997Y200999D01*
X405664D01*
X404997Y200332D01*
X397000Y207130D02*
Y211129D01*
X398999D01*
X399666Y210462D01*
Y209129D01*
X398999Y208463D01*
X397000D01*
X400999Y210462D02*
X401665Y211129D01*
X402998D01*
X403664Y210462D01*
Y207796D01*
X402998Y207130D01*
X401665D01*
X400999Y207796D01*
Y210462D01*
X404997Y207130D02*
X406330D01*
X405664D01*
Y211129D01*
X404997Y210462D01*
X397000Y217000D02*
Y220999D01*
X398999D01*
X399666Y220332D01*
Y218999D01*
X398999Y218333D01*
X397000D01*
X400999Y220332D02*
X401665Y220999D01*
X402998D01*
X403664Y220332D01*
Y217666D01*
X402998Y217000D01*
X401665D01*
X400999Y217666D01*
Y220332D01*
X404997D02*
X405664Y220999D01*
X406997D01*
X407663Y220332D01*
Y217666D01*
X406997Y217000D01*
X405664D01*
X404997Y217666D01*
Y220332D01*
X396000Y229999D02*
X398666D01*
X397333Y231332D02*
Y228666D01*
X402665Y231999D02*
X399999D01*
Y229999D01*
X401332Y230666D01*
X401998D01*
X402665Y229999D01*
Y228666D01*
X401998Y228000D01*
X400665D01*
X399999Y228666D01*
X403997Y231999D02*
Y229333D01*
X405330Y228000D01*
X406663Y229333D01*
Y231999D01*
X72000Y234156D02*
Y230157D01*
X73999Y228157D01*
X75999Y230157D01*
Y234156D01*
X80997Y228157D02*
X78998D01*
X77998Y229157D01*
Y231156D01*
X78998Y232156D01*
X80997D01*
X81997Y231156D01*
Y230157D01*
X77998D01*
X83996Y232156D02*
Y228157D01*
Y230157D01*
X84996Y231156D01*
X85996Y232156D01*
X86995D01*
X89994Y228157D02*
X92993D01*
X93993Y229157D01*
X92993Y230157D01*
X90994D01*
X89994Y231156D01*
X90994Y232156D01*
X93993D01*
X95992Y228157D02*
X97992D01*
X96992D01*
Y232156D01*
X95992D01*
X101990Y228157D02*
X103990D01*
X104989Y229157D01*
Y231156D01*
X103990Y232156D01*
X101990D01*
X100991Y231156D01*
Y229157D01*
X101990Y228157D01*
X106989D02*
Y232156D01*
X109988D01*
X110987Y231156D01*
Y228157D01*
X118985Y233156D02*
X119984Y234156D01*
X121984D01*
X122984Y233156D01*
Y232156D01*
X121984Y231156D01*
X120984D01*
X121984D01*
X122984Y230157D01*
Y229157D01*
X121984Y228157D01*
X119984D01*
X118985Y229157D01*
X72000Y246998D02*
Y242000D01*
X73000Y241000D01*
X74999D01*
X75999Y242000D01*
Y246998D01*
X77998Y241000D02*
X80997D01*
X81997Y242000D01*
X80997Y242999D01*
X78998D01*
X77998Y243999D01*
X78998Y244999D01*
X81997D01*
X83996Y241000D02*
X85996D01*
X84996D01*
Y244999D01*
X83996D01*
X88994Y241000D02*
Y244999D01*
X91993D01*
X92993Y243999D01*
Y241000D01*
X96992Y239001D02*
X97992D01*
X98991Y240000D01*
Y244999D01*
X95992D01*
X94993Y243999D01*
Y242000D01*
X95992Y241000D01*
X98991D01*
X106989Y245998D02*
X107988Y246998D01*
X109988D01*
X110987Y245998D01*
Y244999D01*
X109988Y243999D01*
X110987Y242999D01*
Y242000D01*
X109988Y241000D01*
X107988D01*
X106989Y242000D01*
Y242999D01*
X107988Y243999D01*
X106989Y244999D01*
Y245998D01*
X107988Y243999D02*
X109988D01*
X112987Y245998D02*
X113986Y246998D01*
X115986D01*
X116985Y245998D01*
Y242000D01*
X115986Y241000D01*
X113986D01*
X112987Y242000D01*
Y245998D01*
X122984Y246998D02*
X118985D01*
Y243999D01*
X120984Y244999D01*
X121984D01*
X122984Y243999D01*
Y242000D01*
X121984Y241000D01*
X119984D01*
X118985Y242000D01*
X124983Y241000D02*
X126982D01*
X125982D01*
Y246998D01*
X124983Y245998D01*
X72000Y258998D02*
Y253000D01*
X73999Y254999D01*
X75999Y253000D01*
Y258998D01*
X78998Y256999D02*
X80997D01*
X81997Y255999D01*
Y253000D01*
X78998D01*
X77998Y254000D01*
X78998Y254999D01*
X81997D01*
X84996Y257998D02*
Y256999D01*
X83996D01*
X85996D01*
X84996D01*
Y254000D01*
X85996Y253000D01*
X91993D02*
X89994D01*
X88994Y254000D01*
Y255999D01*
X89994Y256999D01*
X91993D01*
X92993Y255999D01*
Y254999D01*
X88994D01*
X94993Y256999D02*
Y253000D01*
Y254999D01*
X95992Y255999D01*
X96992Y256999D01*
X97992D01*
X106989Y258998D02*
Y253000D01*
X110987D01*
X115986D02*
X113986D01*
X112987Y254000D01*
Y255999D01*
X113986Y256999D01*
X115986D01*
X116985Y255999D01*
Y254999D01*
X112987D01*
X118985Y256999D02*
X120984Y253000D01*
X122984Y256999D01*
X127982Y253000D02*
X125982D01*
X124983Y254000D01*
Y255999D01*
X125982Y256999D01*
X127982D01*
X128982Y255999D01*
Y254999D01*
X124983D01*
X130981Y253000D02*
X132980D01*
X131981D01*
Y258998D01*
X130981D01*
X169000Y257000D02*
Y260999D01*
X170999D01*
X171666Y260332D01*
Y258999D01*
X170999Y258333D01*
X169000D01*
X170333D02*
X171666Y257000D01*
X175664Y260999D02*
X172999D01*
Y257000D01*
X175664D01*
X172999Y258999D02*
X174332D01*
X179663Y260332D02*
X178997Y260999D01*
X177664D01*
X176997Y260332D01*
Y259666D01*
X177664Y258999D01*
X178997D01*
X179663Y258333D01*
Y257666D01*
X178997Y257000D01*
X177664D01*
X176997Y257666D01*
X183662Y260999D02*
X180996D01*
Y257000D01*
X183662D01*
X180996Y258999D02*
X182329D01*
X184995Y260999D02*
X187661D01*
X186328D01*
Y257000D01*
X431999Y104979D02*
X430666D01*
X430000Y104313D01*
Y101647D01*
X430666Y100980D01*
X431999D01*
X432666Y101647D01*
Y104313D01*
X431999Y104979D01*
X420999Y104999D02*
X419666D01*
X419000Y104332D01*
Y101666D01*
X419666Y101000D01*
X420999D01*
X421666Y101666D01*
Y104332D01*
X420999Y104999D01*
X243000Y18999D02*
X245666Y15000D01*
Y18999D02*
X243000Y15000D01*
X246999Y18999D02*
X249664D01*
X248332D01*
Y15000D01*
X250997Y18999D02*
Y15000D01*
X253663D01*
X103000Y221865D02*
Y217866D01*
Y219865D01*
X105666D01*
Y221865D01*
Y217866D01*
X117000Y217787D02*
Y221786D01*
X118333Y220453D01*
X119666Y221786D01*
Y217787D01*
X130000Y221786D02*
Y217787D01*
X132666D01*
X182000Y71000D02*
Y74999D01*
X183999D01*
X184666Y74332D01*
Y72999D01*
X183999Y72333D01*
X182000D01*
X185999Y74999D02*
Y71000D01*
X187332Y72333D01*
X188664Y71000D01*
Y74999D01*
X127001Y13000D02*
Y15666D01*
X125668Y14333D02*
X128333D01*
X125001Y19665D02*
Y16999D01*
X127001D01*
X126334Y18332D01*
Y18998D01*
X127001Y19665D01*
X128333D01*
X129000Y18998D01*
Y17665D01*
X128333Y16999D01*
X125001Y20997D02*
X127667D01*
X129000Y22330D01*
X127667Y23663D01*
X125001D01*
X158947Y15666D02*
X158281Y14999D01*
Y13667D01*
X158947Y13000D01*
X161613D01*
X162279Y13667D01*
Y14999D01*
X161613Y15666D01*
X160280D01*
Y14333D01*
X162279Y16999D02*
X158281D01*
X162279Y19665D01*
X158281D01*
Y20997D02*
X162279D01*
Y22997D01*
X161613Y23663D01*
X158947D01*
X158281Y22997D01*
Y20997D01*
X12024Y198999D02*
X14689D01*
X13356Y200332D02*
Y197667D01*
X16022Y197000D02*
X17355D01*
X16689D01*
Y200999D01*
X16022Y200332D01*
X22020Y197000D02*
X19355D01*
X22020Y199666D01*
Y200332D01*
X21354Y200999D01*
X20021D01*
X19355Y200332D01*
X23353Y200999D02*
Y198333D01*
X24686Y197000D01*
X26019Y198333D01*
Y200999D01*
X176906Y58489D02*
X174806D01*
X175856Y57439D02*
Y59538D01*
X15905Y118499D02*
Y115166D01*
X16572Y114500D01*
X17905D01*
X18571Y115166D01*
Y118499D01*
X19904Y114500D02*
X21237D01*
X20571D01*
Y118499D01*
X19904Y117832D01*
X365600Y237800D02*
Y241799D01*
X367599D01*
X368266Y241132D01*
Y239799D01*
X367599Y239133D01*
X365600D01*
X369599Y241799D02*
Y238466D01*
X370265Y237800D01*
X371598D01*
X372265Y238466D01*
Y241799D01*
X109000Y72000D02*
Y75999D01*
X110999D01*
X111666Y75332D01*
Y73999D01*
X110999Y73333D01*
X109000D01*
X110333D02*
X111666Y72000D01*
X112999D02*
X114332D01*
X113665D01*
Y75999D01*
X112999Y75332D01*
X116331D02*
X116997Y75999D01*
X118330D01*
X118997Y75332D01*
Y72666D01*
X118330Y72000D01*
X116997D01*
X116331Y72666D01*
Y75332D01*
X413350Y243000D02*
Y246999D01*
X415350D01*
X416016Y246332D01*
Y244999D01*
X415350Y244333D01*
X413350D01*
X414683D02*
X416016Y243000D01*
X417349Y243666D02*
X418016Y243000D01*
X419348D01*
X420015Y243666D01*
Y246332D01*
X419348Y246999D01*
X418016D01*
X417349Y246332D01*
Y245666D01*
X418016Y244999D01*
X420015D01*
X216000Y186000D02*
Y189999D01*
X217999D01*
X218666Y189332D01*
Y187999D01*
X217999Y187333D01*
X216000D01*
X217333D02*
X218666Y186000D01*
X219999Y189332D02*
X220665Y189999D01*
X221998D01*
X222664Y189332D01*
Y188666D01*
X221998Y187999D01*
X222664Y187333D01*
Y186667D01*
X221998Y186000D01*
X220665D01*
X219999Y186667D01*
Y187333D01*
X220665Y187999D01*
X219999Y188666D01*
Y189332D01*
X220665Y187999D02*
X221998D01*
X162000Y186000D02*
Y189999D01*
X163999D01*
X164666Y189332D01*
Y187999D01*
X163999Y187333D01*
X162000D01*
X163333D02*
X164666Y186000D01*
X165999Y189999D02*
X168665D01*
Y189332D01*
X165999Y186667D01*
Y186000D01*
X107600D02*
Y189999D01*
X109599D01*
X110266Y189332D01*
Y187999D01*
X109599Y187333D01*
X107600D01*
X108933D02*
X110266Y186000D01*
X114265Y189999D02*
X112932Y189332D01*
X111599Y187999D01*
Y186667D01*
X112265Y186000D01*
X113598D01*
X114265Y186667D01*
Y187333D01*
X113598Y187999D01*
X111599D01*
X81600Y141655D02*
Y145654D01*
X83599D01*
X84266Y144987D01*
Y143655D01*
X83599Y142988D01*
X81600D01*
X82933D02*
X84266Y141655D01*
X88265Y145654D02*
X85599D01*
Y143655D01*
X86932Y144321D01*
X87598D01*
X88265Y143655D01*
Y142322D01*
X87598Y141655D01*
X86265D01*
X85599Y142322D01*
X130600Y141659D02*
Y145658D01*
X132599D01*
X133266Y144991D01*
Y143658D01*
X132599Y142992D01*
X130600D01*
X131933D02*
X133266Y141659D01*
X136598D02*
Y145658D01*
X134599Y143658D01*
X137265D01*
X185552Y141600D02*
Y145599D01*
X187551D01*
X188218Y144932D01*
Y143599D01*
X187551Y142933D01*
X185552D01*
X186885D02*
X188218Y141600D01*
X189551Y144932D02*
X190217Y145599D01*
X191550D01*
X192217Y144932D01*
Y144266D01*
X191550Y143599D01*
X190884D01*
X191550D01*
X192217Y142933D01*
Y142266D01*
X191550Y141600D01*
X190217D01*
X189551Y142266D01*
X414020Y265000D02*
Y268999D01*
X416019D01*
X416685Y268332D01*
Y266999D01*
X416019Y266333D01*
X414020D01*
X415353D02*
X416685Y265000D01*
X420684D02*
X418018D01*
X420684Y267666D01*
Y268332D01*
X420018Y268999D01*
X418685D01*
X418018Y268332D01*
X424666Y219633D02*
Y222299D01*
X423999Y222965D01*
X422666D01*
X422000Y222299D01*
Y219633D01*
X422666Y218967D01*
X423999D01*
X423333Y220299D02*
X424666Y218967D01*
X423999D02*
X424666Y219633D01*
X427998Y218967D02*
Y222965D01*
X425999Y220966D01*
X428664D01*
X104766Y117147D02*
Y119813D01*
X104099Y120479D01*
X102767D01*
X102100Y119813D01*
Y117147D01*
X102767Y116480D01*
X104099D01*
X103433Y117813D02*
X104766Y116480D01*
X104099D02*
X104766Y117147D01*
X106099Y119813D02*
X106765Y120479D01*
X108098D01*
X108765Y119813D01*
Y119146D01*
X108098Y118480D01*
X107432D01*
X108098D01*
X108765Y117813D01*
Y117147D01*
X108098Y116480D01*
X106765D01*
X106099Y117147D01*
X158766D02*
Y119813D01*
X158099Y120479D01*
X156766D01*
X156100Y119813D01*
Y117147D01*
X156766Y116480D01*
X158099D01*
X157433Y117813D02*
X158766Y116480D01*
X158099D02*
X158766Y117147D01*
X162765Y116480D02*
X160099D01*
X162765Y119146D01*
Y119813D01*
X162098Y120479D01*
X160765D01*
X160099Y119813D01*
X211766Y117147D02*
Y119813D01*
X211099Y120479D01*
X209766D01*
X209100Y119813D01*
Y117147D01*
X209766Y116480D01*
X211099D01*
X210433Y117813D02*
X211766Y116480D01*
X211099D02*
X211766Y117147D01*
X213099Y116480D02*
X214432D01*
X213765D01*
Y120479D01*
X213099Y119813D01*
X8000Y48999D02*
Y45000D01*
X10666D01*
X11999D02*
X13332D01*
X12665D01*
Y48999D01*
X11999Y48332D01*
X9666Y259841D02*
X8333D01*
X8999D01*
Y256509D01*
X8333Y255842D01*
X7666D01*
X7000Y256509D01*
X10999Y255842D02*
X12332D01*
X11665D01*
Y259841D01*
X10999Y259175D01*
X452000Y205117D02*
Y201118D01*
X453999D01*
X454666Y201784D01*
Y204450D01*
X453999Y205117D01*
X452000D01*
X458665Y201118D02*
X455999D01*
X458665Y203784D01*
Y204450D01*
X457998Y205117D01*
X456665D01*
X455999Y204450D01*
X8000Y82999D02*
Y79000D01*
X9999D01*
X10666Y79666D01*
Y82332D01*
X9999Y82999D01*
X8000D01*
X11999Y79000D02*
X13332D01*
X12665D01*
Y82999D01*
X11999Y82332D01*
X18666Y148332D02*
X17999Y148999D01*
X16667D01*
X16000Y148332D01*
Y145667D01*
X16667Y145000D01*
X17999D01*
X18666Y145667D01*
X22664Y145000D02*
X19999D01*
X22664Y147666D01*
Y148332D01*
X21998Y148999D01*
X20665D01*
X19999Y148332D01*
X70666Y48332D02*
X69999Y48999D01*
X68666D01*
X68000Y48332D01*
Y45666D01*
X68666Y45000D01*
X69999D01*
X70666Y45666D01*
X71999Y45000D02*
X73332D01*
X72665D01*
Y48999D01*
X71999Y48332D01*
D14*
X384000Y232848D02*
X394000D01*
X384000Y32848D02*
Y232848D01*
Y32848D02*
X394000D01*
Y232848D01*
X445882Y88000D02*
Y98000D01*
X415882D02*
X445882D01*
X415882Y88000D02*
Y98000D01*
Y88000D02*
X445882D01*
X167000Y12118D02*
X177000D01*
Y42118D01*
X167000D02*
X177000D01*
X167000Y12118D02*
Y42118D01*
X134000Y12118D02*
X144000D01*
Y42118D01*
X134000D02*
X144000D01*
X134000Y12118D02*
Y42118D01*
X15307Y158724D02*
X25307D01*
Y188724D01*
X15307D02*
X25307D01*
X15307Y158724D02*
Y188724D01*
X103000Y202787D02*
Y212787D01*
Y202787D02*
X133000D01*
Y212787D01*
X103000D02*
X133000D01*
X253000Y62882D02*
Y232882D01*
X243000Y62882D02*
X253000D01*
X243000D02*
Y232882D01*
X253000D01*
Y25000D02*
Y55000D01*
X243000Y25000D02*
X253000D01*
X243000D02*
Y55000D01*
X253000D01*
D15*
X19433Y110921D02*
X59984D01*
X25624Y91209D02*
X54357Y91043D01*
X19433Y97271D02*
Y110921D01*
X59984Y96818D02*
Y110921D01*
X54357Y91043D02*
X59984Y96818D01*
X19433Y97271D02*
X25624Y91209D01*
D16*
X262756Y267921D02*
X262756Y8079D01*
X357244D02*
Y267921D01*
X262756D02*
X357244D01*
X262756Y8079D02*
X357244D01*
M02*
