M48
;Layer_Color=9474304
;FILE_FORMAT=2:4
INCH,TZ
;TYPE=PLATED
T2F00S00C0.0197
T4F00S00C0.0276
T5F00S00C0.0300
T6F00S00C0.0315
T7F00S00C0.0335
T8F00S00C0.0354
T9F00S00C0.0394
T11F00S00C0.0472
T12F00S00C0.0512
%
T02
X11200Y9796
Y10298
Y10800
X16600
Y10298
Y9796
X21900
Y10298
Y10800
X42100Y19000
X43950
X43702Y20600
X43200
X42698
T04
X3808Y13600
X4792
X21600Y23712
Y24696
T05
X42842Y1417
X44811
X45795Y3385
X43826
X44811Y5354
X42842
X43826Y7322
X45795
X44811Y9291
X45795Y11259
X43826
X44811Y13228
X40874
X39889Y11259
X40874Y9291
X41858Y7322
X39889
X40874Y5354
X41858Y3385
X39889
X40874Y1417
X38905
X36937
X34968
X33000
X31031
X32015Y3385
X30047
X31031Y5354
X33000
Y9291
X31031
X29063
X30047Y11259
X31031Y13228
X29063
X30047Y7322
X29063Y5354
X26110Y3385
X24141Y7322
X22173
X20204
X18236
X16267
X14299
X12330
X13315Y5354
X11346
X16267Y3385
X18236
X20204
X21189Y5354
X19220
X17252Y9291
X15283
X14299Y11259
X12330
X15283Y13228
X17252
X18236Y11259
X20204
X21189Y13228
X23157
X24141Y11259
X23157Y9291
X9378
X7409
X5441
X6425Y11259
X8393
X10362
Y7322
X8393
X6425
X7409Y5354
X9378
X5441
X3472
X2488Y3385
X1504Y1417
X6425Y3385
X4456Y11259
X5441Y13228
X1504
Y9291
X4456Y15196
X6425
X5441Y17165
X6425Y19133
X7409Y21102
X5441
X6425Y23070
X8393
X10362
X9378Y25039
X7409
X5441
X3472
X1504
X2488Y19133
X10362Y15196
X11346Y17165
X13315
X14299Y19133
X12330
Y23070
X14299
X15283Y25039
X13315
X11346
X15283Y21102
X17252
X18236Y23070
X20204Y19133
X19220Y17165
X18236Y15196
X22173
X24141Y19133
X14299Y15196
X30047
X31031Y17165
X29063
X30047Y19133
X29063Y21102
X30047Y23070
X33000Y25039
X40874Y21102
X39889Y19133
X40874Y17165
X41858Y15196
X39889
X43826
X44811Y17165
X42842
X44811Y21102
X42842Y25039
T06
X43100Y9300
X44100
X42088
X38900Y9785
Y10785
Y11785
Y12785
Y13785
Y14785
Y8785
Y7785
Y6785
Y5785
Y4785
Y3785
X24800Y4012
Y5012
Y6788
Y7788
Y8788
Y9788
Y10788
Y11788
Y12788
Y13788
Y14788
X21900Y13833
X19000Y13567
X16600Y13833
X13500Y13567
X11200Y13833
X13500Y9433
X15067Y6400
X16600
X17600
X17200Y3712
Y2700
Y1700
X13900
Y2700
Y3712
X22500Y3000
Y2000
Y5000
Y6000
X24800Y3000
X19000Y9433
X8600
Y13567
X10933Y6400
X3992Y3581
Y1219
X2031Y16361
Y17361
Y18372
X10788Y20779
X11788
X12800
X16441Y20600
X16600Y17967
X21900
X21559Y20600
X24800Y20788
Y19788
Y18788
Y17788
Y16788
Y15788
Y21800
Y22800
X11200Y17967
X38900Y17785
Y18785
Y19785
Y20785
Y21797
Y22797
X41335Y23500
Y25600
X38900Y16785
Y15785
X45700Y15031
Y18968
X45469Y23500
Y25600
T07
X9700Y1916
Y3884
T08
X4619Y16376
Y17361
Y18345
X6981
Y17361
Y16376
X16620Y22816
Y24784
X19180
Y22816
T09
X28000Y3800
Y4800
Y5800
Y6800
Y7800
Y8800
Y9800
Y10800
Y11800
Y12800
Y13800
Y14800
X34000
Y13800
Y12800
Y11800
Y10800
Y9800
Y8800
Y7800
Y6800
Y5800
Y4800
Y3800
Y15800
Y16800
Y17800
Y18800
Y19800
Y20800
Y21800
Y22800
X28000
Y21800
Y20800
Y19800
Y18800
Y17800
Y16800
Y15800
T11
X2652Y10098
X3321Y9507
X3991Y10098
X4660Y9507
X5329Y10098
T12
X1202Y6400
X9273
M30
