G04*
G04 #@! TF.GenerationSoftware,Altium Limited,Altium Designer,18.1.6 (161)*
G04*
G04 Layer_Color=16711935*
%FSLAX25Y25*%
%MOIN*%
G70*
G01*
G75*
%ADD10C,0.00500*%
%ADD11C,0.00787*%
%ADD15C,0.00600*%
%ADD61C,0.00394*%
D10*
X55669Y24000D02*
X55638Y24999D01*
X55543Y25994D01*
X55385Y26980D01*
X55164Y27955D01*
X54883Y28914D01*
X54541Y29853D01*
X54141Y30768D01*
X53683Y31657D01*
X53169Y32514D01*
X52603Y33337D01*
X51985Y34123D01*
X51319Y34867D01*
X50607Y35568D01*
X49851Y36223D01*
X49056Y36828D01*
X48224Y37382D01*
X47359Y37881D01*
X46463Y38325D01*
X45542Y38711D01*
X44597Y39038D01*
X43634Y39304D01*
X42656Y39509D01*
X41667Y39651D01*
X40671Y39730D01*
X39671Y39746D01*
X38673Y39698D01*
X37680Y39588D01*
X36696Y39414D01*
X35725Y39179D01*
X34771Y38882D01*
X33837Y38525D01*
X32928Y38110D01*
X32047Y37638D01*
X31198Y37111D01*
X30384Y36532D01*
X29609Y35902D01*
X28874Y35223D01*
X28185Y34500D01*
X27542Y33735D01*
X26950Y32930D01*
X26410Y32089D01*
X25924Y31216D01*
X25494Y30314D01*
X25123Y29386D01*
X24811Y28437D01*
X24560Y27470D01*
X24371Y26488D01*
X24245Y25497D01*
X24181Y24500D01*
Y23500D01*
X24245Y22503D01*
X24371Y21512D01*
X24560Y20530D01*
X24811Y19563D01*
X25123Y18614D01*
X25494Y17686D01*
X25924Y16784D01*
X26410Y15911D01*
X26950Y15070D01*
X27542Y14265D01*
X28185Y13500D01*
X28874Y12776D01*
X29609Y12098D01*
X30384Y11468D01*
X31198Y10889D01*
X32047Y10362D01*
X32928Y9890D01*
X33837Y9475D01*
X34771Y9118D01*
X35725Y8821D01*
X36696Y8586D01*
X37680Y8412D01*
X38673Y8302D01*
X39671Y8254D01*
X40671Y8270D01*
X41667Y8349D01*
X42656Y8491D01*
X43634Y8696D01*
X44597Y8962D01*
X45542Y9289D01*
X46463Y9675D01*
X47359Y10119D01*
X48224Y10618D01*
X49056Y11172D01*
X49851Y11777D01*
X50606Y12432D01*
X51319Y13133D01*
X51985Y13877D01*
X52603Y14663D01*
X53169Y15486D01*
X53683Y16343D01*
X54141Y17232D01*
X54541Y18147D01*
X54883Y19086D01*
X55164Y20045D01*
X55385Y21020D01*
X55543Y22006D01*
X55638Y23001D01*
X55669Y24000D01*
X452354Y179124D02*
X461646D01*
X452354Y160876D02*
Y179124D01*
Y160876D02*
X461646D01*
Y179124D01*
X444031Y112638D02*
Y193347D01*
X416472Y112638D02*
Y193347D01*
D11*
X415902Y206000D02*
X415114D01*
X415902D01*
X457394Y195591D02*
X456606D01*
X457394D01*
X439898Y196398D02*
X439110D01*
X439898D01*
X97394Y6362D02*
X96606D01*
X97394D01*
X40315Y5890D02*
X39528D01*
X40315D01*
X29417Y136000D02*
X28630D01*
X29417D01*
X35394Y198929D02*
X34606D01*
X35394D01*
X112394Y86488D02*
X111606D01*
X112394D01*
X166394D02*
X165606D01*
X166394D01*
X219394D02*
X218606D01*
X219394D01*
D15*
X19433Y110823D02*
X59984D01*
Y96650D02*
Y110823D01*
X56638Y93303D02*
X59984Y96650D01*
X19433Y97339D02*
X23469Y93303D01*
X19433Y97339D02*
Y110823D01*
D61*
X17284Y261134D02*
X52716D01*
X17284Y204835D02*
Y261134D01*
Y204835D02*
X52716D01*
Y261134D01*
M02*
