M48
;Layer_Color=9474304
;FILE_FORMAT=2:4
INCH,TZ
;TYPE=PLATED
T1F00S00C0.0157
T3F00S00C0.0197
%
G90
G05
T01
G00X42021Y11717
M15
G01X42179
M16
G00X42021Y14472
M15
G01X42179
M16
T03
G00X37100Y14859
M15
G01Y14741
M16
G00X37100Y15859
M15
G01Y15741
M16
G00X37100Y16859
M15
G01Y16741
M16
G00X37100Y17859
M15
G01Y17741
M16
G00X37100Y18859
M15
G01Y18741
M16
G00X37100Y19859
M15
G01Y19741
M16
G00X37100Y20859
M15
G01Y20741
M16
G00X37100Y21859
M15
G01Y21741
M16
G00X37100Y22859
M15
G01Y22741
M16
M30
